<svg xmlns="http://www.w3.org/2000/svg" viewBox="0 0 240 36" fill="none">
  <!-- ASH MATEU — wordmark en paths geométricos estilo Bebas Neue -->
  <!-- A -->
  <polygon points="4,32 13,4 22,32" fill="none" stroke="#0A0A0A" stroke-width="3.2" stroke-linejoin="round"/>
  <line x1="7.5" y1="22" x2="18.5" y2="22" stroke="#0A0A0A" stroke-width="3.2"/>
  <!-- S -->
  <path d="M28,10 Q28,4 34,4 Q40,4 40,10 Q40,18 28,18 Q24,18 24,26 Q24,32 31,32 Q38,32 38,26" stroke="#0A0A0A" stroke-width="3.2" stroke-linecap="round"/>
  <!-- H -->
  <line x1="44" y1="4" x2="44" y2="32" stroke="#0A0A0A" stroke-width="3.2" stroke-linecap="round"/>
  <line x1="56" y1="4" x2="56" y2="32" stroke="#0A0A0A" stroke-width="3.2" stroke-linecap="round"/>
  <line x1="44" y1="18" x2="56" y2="18" stroke="#0A0A0A" stroke-width="3.2" stroke-linecap="round"/>
  <!-- espacio -->
  <!-- M -->
  <polyline points="66,32 66,4 77,22 88,4 88,32" fill="none" stroke="#0A0A0A" stroke-width="3.2" stroke-linejoin="round" stroke-linecap="round"/>
  <!-- A -->
  <polygon points="98,32 107,4 116,32" fill="none" stroke="#0A0A0A" stroke-width="3.2" stroke-linejoin="round"/>
  <line x1="101.5" y1="22" x2="112.5" y2="22" stroke="#0A0A0A" stroke-width="3.2"/>
  <!-- T -->
  <line x1="120" y1="4" x2="136" y2="4" stroke="#0A0A0A" stroke-width="3.2" stroke-linecap="round"/>
  <line x1="128" y1="4" x2="128" y2="32" stroke="#0A0A0A" stroke-width="3.2" stroke-linecap="round"/>
  <!-- E -->
  <line x1="142" y1="4" x2="142" y2="32" stroke="#0A0A0A" stroke-width="3.2" stroke-linecap="round"/>
  <line x1="142" y1="4" x2="156" y2="4" stroke="#0A0A0A" stroke-width="3.2" stroke-linecap="round"/>
  <line x1="142" y1="18" x2="153" y2="18" stroke="#0A0A0A" stroke-width="3.2" stroke-linecap="round"/>
  <line x1="142" y1="32" x2="156" y2="32" stroke="#0A0A0A" stroke-width="3.2" stroke-linecap="round"/>
  <!-- U -->
  <path d="M162,4 L162,24 Q162,32 170,32 Q178,32 178,24 L178,4" stroke="#0A0A0A" stroke-width="3.2" stroke-linecap="round"/>
</svg>
