<svg xmlns="http://www.w3.org/2000/svg" viewBox="0 0 128.2 36" fill="none">
  <path d="M0.43199999999999994 32.4 4.536 7.199999999999999H9.899999999999999L14.004 32.4H10.043999999999999L9.324 27.396V27.468H4.824L4.104 32.4ZM5.292 24.048000000000002H8.856L7.092 11.591999999999999H7.02Z" fill="#0A0A0A"/><path d="M21.06 32.76Q18.18 32.76 16.704 31.122Q15.227999999999998 29.483999999999998 15.227999999999998 26.424V24.983999999999998H18.971999999999998V26.712Q18.971999999999998 29.16 21.023999999999997 29.16Q23.075999999999997 29.16 23.075999999999997 26.64Q23.075999999999997 25.055999999999997 22.355999999999995 23.849999999999998Q21.635999999999996 22.644 19.691999999999997 20.951999999999998Q17.244 18.792 16.272 17.046Q15.299999999999997 15.3 15.299999999999997 13.104Q15.299999999999997 10.116 16.811999999999998 8.478Q18.323999999999998 6.84 21.203999999999997 6.84Q24.048 6.84 25.506 8.478Q26.964 10.116 26.964 13.175999999999998V14.219999999999999H23.22V12.924Q23.22 10.440000000000001 21.24 10.440000000000001Q19.259999999999998 10.440000000000001 19.259999999999998 12.852Q19.259999999999998 14.219999999999999 19.997999999999998 15.408Q20.735999999999997 16.596 22.68 18.288Q25.163999999999998 20.448 26.099999999999998 22.212Q27.035999999999998 23.976 27.035999999999998 26.352Q27.035999999999998 29.448 25.506 31.104Q23.976 32.76 21.06 32.76Z" fill="#0A0A0A"/><path d="M29.303999999999995 32.4V7.199999999999999H33.263999999999996V17.46H37.51199999999999V7.199999999999999H41.471999999999994V32.4H37.51199999999999V21.06H33.263999999999996V32.4Z" fill="#0A0A0A"/><path d="M55.22399999999999 32.4V7.199999999999999H60.87599999999999L63.39599999999999 25.235999999999997H63.46799999999999L65.98799999999999 7.199999999999999H71.63999999999999V32.4H67.89599999999999V13.32H67.82399999999998L64.94399999999999 32.4H61.63199999999999L58.75199999999999 13.32H58.67999999999999V32.4Z" fill="#0A0A0A"/><path d="M73.54799999999999 32.4 77.65199999999999 7.199999999999999H83.01599999999999L87.11999999999999 32.4H83.15999999999998L82.43999999999998 27.396V27.468H77.93999999999998L77.21999999999998 32.4ZM78.40799999999999 24.048000000000002H81.97199999999998L80.20799999999998 11.591999999999999H80.13599999999998Z" fill="#0A0A0A"/><path d="M92.12399999999998 32.4V10.8H87.98399999999998V7.199999999999999H100.22399999999998V10.8H96.08399999999997V32.4Z" fill="#0A0A0A"/><path d="M102.13199999999998 32.4V7.199999999999999H112.93199999999997V10.8H106.09199999999998V17.46H111.52799999999998V21.06H106.09199999999998V28.799999999999997H112.93199999999997V32.4Z" fill="#0A0A0A"/><path d="M115.05599999999997 26.424V7.199999999999999H119.01599999999998V26.712Q119.01599999999998 29.16 121.03199999999998 29.16Q123.04799999999997 29.16 123.04799999999997 26.712V7.199999999999999H126.86399999999998V26.424Q126.86399999999998 29.483999999999998 125.35199999999998 31.122Q123.83999999999997 32.76 120.95999999999998 32.76Q118.07999999999997 32.76 116.56799999999997 31.122Q115.05599999999997 29.483999999999998 115.05599999999997 26.424Z" fill="#0A0A0A"/>
</svg>